<svg xmlns="http://www.w3.org/2000/svg" width="80" height="28" viewBox="0 0 80 28" fill="none"><g id="SVG"><path id="Vector" d="M34.0441 14.3473C34.0441 18.1031 31.1059 20.8708 27.5 20.8708C23.8941 20.8708 20.9559 18.1031 20.9559 14.3473C20.9559 10.5649 23.8941 7.82373 27.5 7.82373C31.1059 7.82373 34.0441 10.5649 34.0441 14.3473ZM31.1794 14.3473C31.1794 12.0002 29.4765 10.3943 27.5 10.3943C25.5235 10.3943 23.8206 12.0002 23.8206 14.3473C23.8206 16.6708 25.5235 18.3002 27.5 18.3002C29.4765 18.3002 31.1794 16.6678 31.1794 14.3473Z" fill="#EA4335"></path><path id="Vector_2" d="M48.1618 14.3473C48.1618 18.1031 45.2235 20.8708 41.6177 20.8708C38.0118 20.8708 35.0735 18.1031 35.0735 14.3473C35.0735 10.5678 38.0118 7.82373 41.6177 7.82373C45.2235 7.82373 48.1618 10.5649 48.1618 14.3473ZM45.2971 14.3473C45.2971 12.0002 43.5941 10.3943 41.6177 10.3943C39.6412 10.3943 37.9383 12.0002 37.9383 14.3473C37.9383 16.6708 39.6412 18.3002 41.6177 18.3002C43.5941 18.3002 45.2971 16.6678 45.2971 14.3473Z" fill="#FBBC05"></path><path id="Vector_3" d="M61.6912 8.21785V19.9296C61.6912 24.7473 58.85 26.7149 55.4912 26.7149C52.3294 26.7149 50.4265 24.6002 49.7088 22.8708L52.203 21.8326C52.6471 22.8943 53.7353 24.1473 55.4882 24.1473C57.6382 24.1473 58.9706 22.8208 58.9706 20.3237V19.3855H58.8706C58.2294 20.1767 56.9941 20.8678 55.4353 20.8678C52.1735 20.8678 49.1853 18.0267 49.1853 14.3708C49.1853 10.6884 52.1735 7.82373 55.4353 7.82373C56.9912 7.82373 58.2265 8.51491 58.8706 9.28255H58.9706V8.22079H61.6912V8.21785ZM59.1735 14.3708C59.1735 12.0737 57.6412 10.3943 55.6912 10.3943C53.7147 10.3943 52.0588 12.0737 52.0588 14.3708C52.0588 16.6443 53.7147 18.3002 55.6912 18.3002C57.6412 18.3002 59.1735 16.6443 59.1735 14.3708Z" fill="#4285F4"></path><path id="Vector_4" d="M66.1764 1.35303V20.4707H63.3823V1.35303H66.1764Z" fill="#34A853"></path><path id="Vector_5" d="M77.0647 16.4943L79.2882 17.9767C78.5706 19.0384 76.8412 20.8679 73.8529 20.8679C70.147 20.8679 67.3794 18.0032 67.3794 14.3443C67.3794 10.4649 70.1706 7.8208 73.5323 7.8208C76.9176 7.8208 78.5735 10.5149 79.1147 11.9708L79.4117 12.712L70.6912 16.3237C71.3588 17.6326 72.397 18.3002 73.8529 18.3002C75.3118 18.3002 76.3235 17.5826 77.0647 16.4943ZM70.2206 14.1473L76.05 11.7267C75.7294 10.912 74.7647 10.3443 73.6294 10.3443C72.1735 10.3443 70.147 11.6296 70.2206 14.1473Z" fill="#EA4335"></path><path id="Vector_6" d="M10.3794 12.6501V9.88242H19.7059C19.7971 10.3648 19.8441 10.9354 19.8441 11.553C19.8441 13.6295 19.2765 16.1971 17.4471 18.0265C15.6677 19.8795 13.3941 20.8677 10.3824 20.8677C4.80001 20.8677 0.105896 16.3207 0.105896 10.7383C0.105896 5.15595 4.80001 0.608887 10.3824 0.608887C13.4706 0.608887 15.6706 1.82065 17.3235 3.40006L15.3706 5.353C14.1853 4.24124 12.5794 3.37653 10.3794 3.37653C6.30296 3.37653 3.11472 6.66183 3.11472 10.7383C3.11472 14.8148 6.30296 18.1001 10.3794 18.1001C13.0235 18.1001 14.5294 17.0383 15.4941 16.0736C16.2765 15.2912 16.7912 14.1736 16.9941 12.6471L10.3794 12.6501Z" fill="#4285F4"></path></g></svg>