<svg xmlns="http://www.w3.org/2000/svg" id="Layer_1" data-name="Layer 1" viewBox="0 0 24 24" stroke-width="1.5" width="40" height="40" color="#ffffff"><defs><style>.cls-63762d3cc3a86d32eae6efc5-1{fill:none;stroke:currentColor;stroke-miterlimit:10;}</style></defs><rect class="cls-63762d3cc3a86d32eae6efc5-1" x="1.48" y="2.41" width="21.04" height="4.78"></rect><rect class="cls-63762d3cc3a86d32eae6efc5-1" x="1.48" y="7.2" width="21.04" height="15.3"></rect><line class="cls-63762d3cc3a86d32eae6efc5-1" x1="6.26" y1="0.5" x2="6.26" y2="4.33"></line><line class="cls-63762d3cc3a86d32eae6efc5-1" x1="17.74" y1="0.5" x2="17.74" y2="4.33"></line><line class="cls-63762d3cc3a86d32eae6efc5-1" x1="12" y1="0.5" x2="12" y2="4.33"></line><path class="cls-63762d3cc3a86d32eae6efc5-1" d="M11,18.67H6.26v-1L8.56,16a3.86,3.86,0,0,0,1.53-3.07h0A1.92,1.92,0,0,0,8.17,11H6.26"></path><path class="cls-63762d3cc3a86d32eae6efc5-1" d="M17.74,11H13.91v3.83h1.92a1.91,1.91,0,0,1,1.91,1.91h0a1.91,1.91,0,0,1-1.91,1.91H13"></path></svg>